<?xml version="1.0" standalone="no"?>
<!DOCTYPE svg PUBLIC "-//W3C//DTD SVG 20010904//EN"
 "http://www.w3.org/TR/2001/REC-SVG-20010904/DTD/svg10.dtd">
<svg version="1.0" xmlns="http://www.w3.org/2000/svg"
 width="300.000000pt" height="242.000000pt" viewBox="0 0 300.000000 242.000000"
 preserveAspectRatio="xMidYMid meet">
<metadata>
Created by potrace 1.10, written by Peter Selinger 2001-2011
</metadata>
<g transform="translate(0.000000,242.000000) scale(0.100000,-0.100000)"
fill="#000000" stroke="none">
<path d="M2465 2020 c-27 -5 -58 -7 -67 -4 -10 3 -27 0 -39 -6 -19 -11 -21
-18 -16 -63 2 -29 1 -110 -4 -182 -10 -146 0 -222 33 -251 17 -16 40 -20 138
-23 75 -2 125 1 139 8 23 13 29 55 9 68 -7 4 -62 8 -123 8 l-110 0 0 70 0 70
120 11 c66 7 121 12 123 13 2 0 2 16 0 34 l-3 32 -117 -2 -118 -3 0 65 0 64
36 7 c21 4 76 4 124 1 70 -5 90 -4 100 8 17 21 8 48 -20 62 -35 17 -145 24
-205 13z m-45 -59 c0 -5 -6 -14 -14 -20 -16 -13 -32 2 -21 19 8 12 35 13 35 1z
m-6 -180 c20 -21 15 -35 -15 -51 -17 -10 -19 -7 -19 30 0 44 8 49 34 21z"/>
<path d="M1963 2000 c-23 -9 -23 -10 -23 -239 0 -275 -7 -261 121 -250 155 14
250 89 216 172 -8 18 -27 43 -42 55 l-27 21 21 30 c25 35 28 99 6 141 -8 16
-35 41 -58 55 -37 21 -56 25 -118 24 -41 0 -84 -4 -96 -9z m167 -85 c47 -24
52 -77 9 -103 -11 -7 -43 -16 -70 -19 l-49 -6 0 72 0 71 40 0 c23 0 54 -7 70
-15z m-122 -137 c17 -17 15 -45 -4 -52 -24 -9 -24 -9 -24 29 0 37 8 43 28 23z
m165 -20 c8 -27 7 -28 -22 -17 -19 8 -21 12 -11 24 17 21 27 19 33 -7z m-13
-67 c50 -26 48 -59 -3 -77 -21 -8 -61 -16 -88 -20 l-49 -7 0 62 0 61 53 0 c32
0 66 -7 87 -19z"/>
<path d="M693 1982 c-37 -38 7 -72 93 -72 l62 0 7 -107 c4 -60 8 -142 9 -184
3 -86 8 -99 40 -99 46 0 50 18 42 188 -4 86 -10 168 -13 180 l-6 24 90 -7 c97
-8 118 1 111 47 -4 29 -44 35 -262 40 -123 2 -163 0 -173 -10z m227 -45 c0 -7
-5 -18 -12 -25 -9 -9 -16 -8 -30 5 -26 23 -22 33 12 33 18 0 30 -5 30 -13z"/>
<path d="M1171 1982 c-7 -13 -11 -98 -11 -235 0 -231 3 -242 52 -235 21 3 23
9 26 71 2 37 7 67 13 67 19 0 125 -59 178 -99 30 -23 58 -41 62 -41 14 0 39
32 39 50 0 19 -48 66 -99 96 -17 10 -31 21 -31 24 0 3 17 14 38 25 52 28 77
80 62 134 -24 90 -117 152 -241 159 -70 4 -78 3 -88 -16z m192 -98 c21 -14 43
-36 49 -50 10 -21 8 -28 -12 -49 -22 -24 -34 -28 -117 -40 l-43 -7 0 92 0 93
43 -7 c23 -4 59 -18 80 -32z m-127 -165 c16 -17 26 -20 64 -14 25 3 52 8 60
11 12 3 15 -5 15 -36 0 -22 -1 -40 -3 -40 -1 0 -26 12 -54 26 -45 23 -54 24
-77 13 -14 -7 -29 -15 -33 -17 -5 -2 -8 15 -8 37 0 46 8 51 36 20z"/>
<path d="M1573 1979 c-18 -19 -16 -56 4 -67 9 -5 33 -7 54 -5 l39 6 -3 -159
-2 -159 -30 -3 c-65 -6 -75 -11 -75 -41 0 -16 6 -31 15 -35 8 -3 75 -2 150 1
143 6 159 12 153 55 -3 21 -9 23 -65 26 l-63 3 0 150 0 150 53 -2 c30 -1 59 1
65 5 17 10 15 51 -3 66 -22 18 -276 26 -292 9z m177 -36 c-1 -12 -26 -43 -35
-43 -9 0 -34 31 -35 43 0 4 16 7 35 7 19 0 35 -3 35 -7z m-20 -347 c0 -2 3
-11 6 -20 5 -13 -1 -16 -25 -16 -29 0 -31 2 -21 20 9 17 40 29 40 16z"/>
<path d="M2328 1410 c-31 -5 -72 -13 -90 -18 -20 -5 -44 -4 -61 2 -19 8 -33 7
-45 0 -15 -10 -17 -30 -18 -145 0 -74 -3 -242 -7 -374 -7 -217 -6 -245 10
-290 29 -81 53 -89 262 -94 232 -4 269 7 251 79 l-6 25 -192 0 c-163 0 -194 2
-207 16 -20 20 -31 148 -21 231 l7 54 196 17 c107 10 204 22 214 28 13 6 19
21 19 44 0 56 -17 59 -214 40 -94 -9 -180 -18 -191 -20 -19 -4 -20 0 -17 133
2 75 5 138 6 139 1 2 47 10 101 19 102 18 104 17 302 -13 27 -4 34 -1 44 20
21 46 5 74 -53 92 -64 19 -215 27 -290 15z m269 -55 c55 -23 33 -28 -62 -15
-139 20 -300 -3 -335 -47 -18 -23 -20 -41 -20 -152 0 -160 6 -171 88 -170 31
0 113 6 182 13 69 7 129 11 133 8 24 -13 -24 -23 -178 -37 -94 -8 -180 -20
-193 -25 -36 -15 -52 -68 -52 -167 0 -106 11 -152 46 -184 25 -23 30 -24 194
-24 162 0 212 -7 156 -21 -45 -11 -328 1 -358 15 -46 23 -53 58 -52 256 0 99
3 262 5 362 l4 183 40 0 c22 1 76 6 121 13 102 15 235 11 281 -8z"/>
<path d="M1487 1362 c-13 -15 -17 -74 -23 -432 -7 -410 -6 -415 14 -433 12
-11 31 -17 48 -15 39 4 47 43 42 211 -2 75 -3 137 -3 137 0 0 52 -51 115 -113
135 -134 211 -187 274 -194 38 -5 46 -2 56 17 20 37 4 69 -43 89 -52 22 -103
64 -230 189 -75 74 -95 98 -83 104 23 13 245 257 293 322 49 66 51 78 23 106
-36 36 -54 25 -156 -92 -95 -112 -242 -268 -251 -268 -2 0 -2 30 1 68 3 37 8
115 11 174 6 99 5 108 -14 127 -26 26 -53 27 -74 3z m44 -134 c0 -46 -3 -113
-7 -149 -6 -60 -4 -68 18 -93 23 -28 25 -28 54 -13 16 8 81 73 144 143 190
212 189 212 190 189 0 -26 -62 -103 -192 -241 -128 -134 -134 -144 -113 -183
18 -36 242 -243 296 -274 21 -12 39 -28 39 -34 0 -17 -4 -17 -53 8 -57 29 -76
45 -199 165 -60 57 -116 104 -126 104 -11 0 -27 -9 -37 -20 -19 -21 -24 -63
-25 -213 0 -64 -3 -86 -12 -81 -8 5 -9 105 -4 388 4 209 10 384 13 389 11 18
15 -5 14 -85z"/>
<path d="M835 1353 c-22 -3 -45 -9 -52 -15 -20 -16 -15 -63 7 -83 17 -15 31
-17 101 -11 l81 7 -8 -38 c-4 -21 -8 -157 -8 -303 l-1 -264 -25 -7 c-14 -4
-46 -7 -71 -8 -72 -2 -104 -55 -59 -96 19 -17 28 -18 123 -7 56 7 154 12 218
12 100 0 118 3 132 18 21 23 22 56 1 76 -12 12 -38 16 -116 16 l-101 0 5 290
c2 159 7 293 11 296 3 3 45 2 93 -4 96 -11 129 -5 139 27 11 36 -4 60 -43 70
-85 22 -315 35 -427 24z m298 -48 c96 -7 117 -12 117 -27 0 -7 -28 -8 -83 -4
-142 12 -146 3 -146 -392 l-1 -223 25 -24 c22 -22 32 -25 105 -25 61 0 81 -3
78 -12 -3 -9 -52 -15 -169 -21 -90 -4 -175 -9 -189 -10 -14 -1 -27 3 -30 8 -3
6 18 12 49 15 43 5 58 12 81 36 l27 31 0 297 0 297 -25 20 c-19 14 -39 20 -72
19 -72 -3 -85 -1 -74 10 8 8 152 18 199 13 11 -1 60 -5 108 -8z"/>
<path d="M357 1016 c-11 -11 -15 -70 -20 -273 -7 -254 -6 -258 14 -275 34 -29
186 -19 301 18 62 20 78 60 36 88 -20 13 -30 13 -90 -4 -37 -10 -93 -22 -124
-26 -52 -6 -57 -5 -50 11 3 10 9 113 13 231 7 229 4 244 -43 244 -12 0 -29 -6
-37 -14z m48 -152 c0 -60 -3 -153 -6 -207 -5 -85 -3 -102 12 -122 20 -25 56
-38 65 -24 3 5 9 7 14 4 5 -3 37 2 72 10 72 17 98 19 98 7 0 -17 -98 -37 -224
-46 -28 -2 -45 3 -59 17 -17 17 -19 28 -12 91 4 39 8 118 10 176 4 211 4 212
18 207 9 -3 12 -34 12 -113z"/>
</g>
</svg>
